<svg width="36" height="36" viewBox="0 0 36 36" fill="none" xmlns="http://www.w3.org/2000/svg">
<path d="M18 0C14.4399 0 10.9598 1.05568 7.99974 3.03355C5.03966 5.01141 2.73255 7.82263 1.37018 11.1117C0.00779906 14.4008 -0.348661 18.02 0.345873 21.5116C1.04041 25.0033 2.75474 28.2106 5.27209 30.7279C7.78943 33.2453 10.9967 34.9596 14.4884 35.6541C17.98 36.3487 21.5992 35.9922 24.8883 34.6298C28.1774 33.2674 30.9886 30.9603 32.9665 28.0003C34.9443 25.0402 36 21.5601 36 18C36 13.2261 34.1036 8.64773 30.7279 5.27208C27.3523 1.89642 22.7739 0 18 0ZM28.1678 11.8125L15.8603 27.6345C15.7624 27.7622 15.6383 27.8675 15.4963 27.9432C15.3544 28.0189 15.1978 28.0632 15.0372 28.0732C14.8766 28.0833 14.7158 28.0587 14.5655 28.0013C14.4152 27.9438 14.279 27.8548 14.166 27.7402L7.20001 20.799C7.09388 20.6943 7.00961 20.5696 6.9521 20.4321C6.89458 20.2946 6.86496 20.147 6.86496 19.998C6.86496 19.8489 6.89458 19.7014 6.9521 19.5639C7.00961 19.4264 7.09388 19.3017 7.20001 19.197L8.69851 17.6985C8.80317 17.5924 8.92787 17.5081 9.06538 17.4506C9.20289 17.3931 9.35046 17.3635 9.49951 17.3635C9.64856 17.3635 9.79612 17.3931 9.93363 17.4506C10.0711 17.5081 10.1958 17.5924 10.3005 17.6985L14.6858 22.05L24.732 9.14175C24.8227 9.02368 24.936 8.92479 25.0652 8.85083C25.1945 8.77687 25.3371 8.7293 25.4849 8.71088C25.6327 8.69246 25.7826 8.70356 25.926 8.74354C26.0695 8.78351 26.2036 8.85156 26.3205 8.94375L27.9675 10.2262C28.0856 10.317 28.1845 10.4303 28.2584 10.5595C28.3324 10.6887 28.38 10.8314 28.3984 10.9791C28.4168 11.1269 28.4057 11.2768 28.3657 11.4203C28.3257 11.5637 28.2577 11.6978 28.1655 11.8147L28.1678 11.8125Z" fill="#316CE2"/>
</svg>
