<svg width="24" height="24" viewBox="0 0 24 24" fill="none" xmlns="http://www.w3.org/2000/svg">
<path d="M10.7294 3.14062L18.1961 10.6074L13.292 15.374L5.80409 7.86621V3.14355L10.7294 3.14062ZM10.7667 1.33398H5.71612C5.26101 1.33398 4.82447 1.51478 4.50266 1.83659C4.18084 2.1584 4.00005 2.59502 4.00005 3.05013V7.90202C3.99988 8.35624 4.17966 8.79195 4.50005 9.11393L12.0774 16.7142C12.3959 17.0339 12.8277 17.2149 13.2789 17.2184C13.7302 17.2219 14.1647 17.0475 14.4881 16.7327L19.5201 11.8395C19.6831 11.681 19.8131 11.4917 19.9024 11.2826C19.9917 11.0734 20.0384 10.8485 20.04 10.6211C20.0416 10.3937 19.998 10.1681 19.9118 9.95768C19.8255 9.74728 19.6982 9.5563 19.5374 9.39551L11.9774 1.83822C11.6565 1.51656 11.2211 1.33508 10.7667 1.33398ZM9.92412 7.25684C9.79844 7.38262 9.64918 7.48238 9.48492 7.55046C9.32065 7.61853 9.14458 7.65365 8.96677 7.65365C8.78895 7.65365 8.61288 7.61853 8.44862 7.55046C8.28436 7.48238 8.13509 7.38262 8.00941 7.25684C7.88359 7.13104 7.78381 6.98176 7.71571 6.81738C7.64761 6.65301 7.61252 6.47675 7.61252 6.29883C7.61252 6.12091 7.64761 5.94465 7.71571 5.78027C7.78381 5.6159 7.88359 5.46662 8.00941 5.34082C8.26364 5.08703 8.60819 4.94434 8.96742 4.94434C9.32664 4.94434 9.6712 5.08703 9.92543 5.34082C10.0513 5.46661 10.1511 5.61584 10.2192 5.78027C10.2873 5.94471 10.3223 6.12118 10.3222 6.29915C10.322 6.47713 10.2869 6.65337 10.2186 6.81771C10.1502 6.98205 10.0502 7.13122 9.92412 7.25684ZM20.0908 14.1673L20.9281 14.9915C20.9581 15.0212 20.9819 15.0565 20.9982 15.0954C21.0144 15.1343 21.0228 15.1759 21.0228 15.2181C21.0228 15.2603 21.0144 15.3019 20.9982 15.3408C20.9819 15.3797 20.9581 15.415 20.9281 15.4447L13.8934 22.4287C13.7392 22.5823 13.5304 22.6686 13.3127 22.6686C13.095 22.6686 12.8863 22.5823 12.7321 22.4287L4.00005 13.6927V11.4701C3.99644 11.4411 4.00241 11.4119 4.01706 11.3867C4.03171 11.3615 4.05425 11.3416 4.08119 11.3304C4.10812 11.3192 4.13801 11.3171 4.16623 11.3245C4.19445 11.3319 4.21947 11.3484 4.23744 11.3714L13.3454 20.4274L19.6414 14.1715C19.7006 14.1117 19.7811 14.0776 19.8653 14.0768C19.9495 14.0761 20.0306 14.1085 20.0908 14.1673Z" fill="#121212"/>
</svg>
