<svg width="96" height="96" viewBox="0 0 96 96" fill="none" xmlns="http://www.w3.org/2000/svg">
<path fill-rule="evenodd" clip-rule="evenodd" d="M18.0536 6.75467C18.7031 6.17686 19.688 6.19651 20.3139 6.79976L31.8503 17.9179C32.5119 18.5555 32.5313 19.6087 31.8937 20.2703C31.2561 20.9319 30.2029 20.9514 29.5413 20.3138L20.8231 11.9116V49.5699C20.8231 50.4888 20.0782 51.2336 19.1594 51.2336C18.2406 51.2336 17.4957 50.4888 17.4957 49.5699V11.7045L7.76746 20.3589C7.08096 20.9696 6.02936 20.9081 5.41864 20.2216C4.80793 19.5351 4.86936 18.4835 5.55586 17.8728L18.0536 6.75467ZM56.6972 17.7276C57.2261 17.3783 57.9075 17.3599 58.4545 17.6801L90.6602 36.5326C91.1679 36.8298 91.4809 37.3729 91.4834 37.9611C91.486 38.5494 91.1777 39.0952 90.6727 39.3968L75.2908 48.5814C74.5019 49.0524 73.4805 48.7948 73.0095 48.0059C72.5384 47.217 72.7961 46.1956 73.585 45.7245L86.5508 37.9826L57.667 21.0746L41.5986 31.6866L69.5326 48.6309C70.0298 48.9325 70.3334 49.4718 70.3334 50.0533V50.5138C70.3336 50.5282 70.3336 50.5424 70.3334 50.5567V74.7066C70.3334 75.2682 70.0501 75.7919 69.58 76.0992L59.9664 82.3834C59.455 82.7176 58.8017 82.7448 58.2644 82.4541C57.7271 82.1634 57.3924 81.6017 57.3924 80.9908V58.2615L27.5929 40.9364L26.3251 41.7736C25.5584 42.28 24.5264 42.0689 24.02 41.3022C23.5137 40.5355 23.7247 39.5035 24.4914 38.9971L37.0365 30.712C37.2815 30.371 37.6364 30.1476 38.0224 30.0609L56.6972 17.7276ZM38.527 33.7152L30.6923 38.8894L59.8923 55.866C60.4046 56.1639 60.7198 56.7117 60.7198 57.3043V77.9157L67.006 73.8066V53.7425L64.8206 55.2809C64.0692 55.8098 63.0314 55.6295 62.5025 54.8782C61.9736 54.1269 62.1539 53.089 62.9052 52.5601L66.0013 50.3806L38.527 33.7152ZM92.1824 44.3226C92.6777 45.0965 92.4518 46.1254 91.6779 46.6207L75.8154 56.772C75.0415 57.2673 74.0126 57.0414 73.5173 56.2675C73.022 55.4936 73.2479 54.4647 74.0218 53.9694L89.8843 43.818C90.6583 43.3228 91.6871 43.5486 92.1824 44.3226ZM13.9861 46.135C14.5483 46.8617 14.4149 47.9067 13.6882 48.4689L9.36956 51.8096L37.1568 68.4015L50.7117 59.7682C51.4867 59.2746 52.5151 59.5028 53.0087 60.2777C53.5023 61.0527 53.2742 62.0811 52.4992 62.5747L38.0788 71.7593C37.5481 72.0973 36.8722 72.107 36.3321 71.7845L5.5684 53.4154C5.09603 53.1333 4.79365 52.636 4.76062 52.0868C4.7276 51.5376 4.9682 51.0076 5.40336 50.671L11.6522 45.837C12.379 45.2748 13.4239 45.4082 13.9861 46.135ZM92.1824 52.5403C92.6777 53.3143 92.4518 54.3432 91.6779 54.8384L75.8154 64.9898C75.0415 65.4851 74.0126 65.2592 73.5173 64.4853C73.022 63.7113 73.2479 62.6825 74.0218 62.1872L89.8843 52.0358C90.6583 51.5405 91.6871 51.7664 92.1824 52.5403ZM3.79325 57.8981C4.26621 57.1104 5.28822 56.8552 6.07598 57.3281L37.3834 76.1247L51.8908 66.5505C52.6577 66.0444 53.6896 66.2558 54.1958 67.0227C54.7019 67.7896 54.4905 68.8215 53.7236 69.3276L38.3417 79.479C37.8073 79.8317 37.1179 79.8464 36.569 79.5168L4.36324 60.1809C3.57548 59.7079 3.32029 58.6859 3.79325 57.8981ZM92.1824 60.7581C92.6777 61.532 92.4518 62.5609 91.6779 63.0562L75.8154 73.2076C75.0415 73.7028 74.0126 73.477 73.5173 72.703C73.022 71.9291 73.2479 70.9002 74.0218 70.4049L89.8843 60.2536C90.6583 59.7583 91.6871 59.9842 92.1824 60.7581ZM3.79325 65.6325C4.26621 64.8447 5.28822 64.5895 6.07598 65.0625L37.3834 83.8591L51.8908 74.2849C52.6577 73.7788 53.6896 73.9902 54.1958 74.757C54.7019 75.5239 54.4905 76.5559 53.7236 77.062L38.3417 87.2134C37.8073 87.5661 37.1179 87.5808 36.569 87.2512L4.36324 67.9152C3.57548 67.4423 3.32029 66.4203 3.79325 65.6325ZM3.79325 73.3669C4.26621 72.5791 5.28822 72.3239 6.07598 72.7969L37.3834 91.5935L51.8908 82.0192C52.6577 81.5131 53.6896 81.7245 54.1958 82.4914C54.7019 83.2583 54.4905 84.2903 53.7236 84.7964L38.3417 94.9477C37.8073 95.3004 37.1179 95.3151 36.569 94.9855L4.36324 75.6496C3.57548 75.1767 3.32029 74.1546 3.79325 73.3669Z" fill="#121212"/>
</svg>
