<svg width="18" height="18" viewBox="0 0 18 18" fill="none" xmlns="http://www.w3.org/2000/svg">
<path d="M7.11813 13V11M10.4114 5.12571V4.6C10.3307 2.69733 11.8034 1.08768 13.7052 1C15.6065 1.08829 17.0786 2.69776 16.9979 4.6V5.12571M10.4103 5.12572C10.1035 5.04195 9.78688 4.99967 9.46887 5H4.76518C4.44717 4.99967 4.13054 5.04195 3.82376 5.12572C2.12097 5.63797 0.967426 7.22166 1.00177 9V13C0.937695 15.1438 2.62212 16.9341 4.76518 17H9.47001C11.6131 16.9341 13.2975 15.1438 13.2334 13V9C13.2676 7.22134 12.1135 5.63755 10.4103 5.12572Z" stroke="#121212" stroke-width="1.5" stroke-linecap="round" stroke-linejoin="round"/>
</svg>
