<svg width="19" height="18" viewBox="0 0 19 18" fill="none" xmlns="http://www.w3.org/2000/svg">
<g clip-path="url(#clip0_22673_1162)">
<path d="M15.5 4.98665C13.28 4.76665 11.0467 4.65332 8.82 4.65332C7.5 4.65332 6.18 4.71999 4.86 4.85332L3.5 4.98665" stroke="#121212" stroke-linecap="round" stroke-linejoin="round"/>
<path d="M7.16666 4.31331L7.31332 3.43998C7.41999 2.80665 7.49999 2.33331 8.62666 2.33331H10.3733C11.5 2.33331 11.5867 2.83331 11.6867 3.44665L11.8333 4.31331" stroke="#121212" stroke-linecap="round" stroke-linejoin="round"/>
<path d="M14.0669 7.09308L13.6336 13.8064C13.5603 14.8531 13.5003 15.6664 11.6403 15.6664H7.36026C5.50026 15.6664 5.44026 14.8531 5.36693 13.8064L4.93359 7.09308" stroke="#121212" stroke-linecap="round" stroke-linejoin="round"/>
<path d="M8.38666 12H10.6067" stroke="#121212" stroke-linecap="round" stroke-linejoin="round"/>
<path d="M7.83334 9.33331H11.1667" stroke="#121212" stroke-linecap="round" stroke-linejoin="round"/>
</g>
<defs>
<clipPath id="clip0_22673_1162">
<rect width="16" height="16" fill="white" transform="translate(1.5 1)"/>
</clipPath>
</defs>
</svg>
