<svg width="20" height="20" viewBox="0 0 20 20" fill="none" xmlns="http://www.w3.org/2000/svg">
<path d="M18.309 15.2748C18.309 15.5748 18.2424 15.8832 18.1007 16.1832C17.959 16.4832 17.7757 16.7665 17.534 17.0332C17.1257 17.4832 16.6757 17.8082 16.1674 18.0165C15.6674 18.2248 15.1257 18.3332 14.5424 18.3332C13.6924 18.3332 12.784 18.1332 11.8257 17.7248C10.8674 17.3165 9.90903 16.7665 8.95903 16.0748C8.00069 15.3748 7.09236 14.5998 6.22569 13.7415C5.36736 12.8748 4.59236 11.9665 3.90069 11.0165C3.21736 10.0665 2.66736 9.1165 2.26736 8.17484C1.86736 7.22484 1.66736 6.3165 1.66736 5.44984C1.66736 4.88317 1.76736 4.3415 1.96736 3.8415C2.16736 3.33317 2.48403 2.8665 2.92569 2.44984C3.45903 1.92484 4.04236 1.6665 4.65903 1.6665C4.89236 1.6665 5.12569 1.7165 5.33403 1.8165C5.55069 1.9165 5.74236 2.0665 5.89236 2.28317L7.82569 5.00817C7.97569 5.2165 8.08403 5.40817 8.15903 5.5915C8.23403 5.7665 8.27569 5.9415 8.27569 6.09984C8.27569 6.29984 8.21736 6.49984 8.10069 6.6915C7.99236 6.88317 7.83403 7.08317 7.63403 7.28317L7.00069 7.9415C6.90902 8.03317 6.86736 8.1415 6.86736 8.27484C6.86736 8.3415 6.87569 8.39984 6.89236 8.4665C6.91736 8.53317 6.94236 8.58317 6.95903 8.63317C7.10903 8.90817 7.36736 9.2665 7.73403 9.69984C8.10903 10.1332 8.50903 10.5748 8.94236 11.0165C9.39236 11.4582 9.82569 11.8665 10.2674 12.2415C10.7007 12.6082 11.059 12.8582 11.3424 13.0082C11.384 13.0248 11.434 13.0498 11.4924 13.0748C11.559 13.0998 11.6257 13.1082 11.7007 13.1082C11.8424 13.1082 11.9507 13.0582 12.0424 12.9665L12.6757 12.3415C12.884 12.1332 13.084 11.9748 13.2757 11.8748C13.4674 11.7582 13.659 11.6998 13.8674 11.6998C14.0257 11.6998 14.1924 11.7332 14.3757 11.8082C14.559 11.8832 14.7507 11.9915 14.959 12.1332L17.7174 14.0915C17.934 14.2415 18.084 14.4165 18.1757 14.6248C18.259 14.8332 18.309 15.0415 18.309 15.2748Z" stroke="#121212" stroke-width="1.5" stroke-miterlimit="10"/>
<path d="M15.4174 7.49967C15.4174 6.99967 15.0257 6.23301 14.4424 5.60801C13.9091 5.03301 13.2007 4.58301 12.5007 4.58301" stroke="#121212" stroke-width="1.5" stroke-linecap="round" stroke-linejoin="round"/>
<path d="M18.3341 7.49984C18.3341 4.27484 15.7257 1.6665 12.5007 1.6665" stroke="#121212" stroke-width="1.5" stroke-linecap="round" stroke-linejoin="round"/>
</svg>
