<svg width="24" height="24" viewBox="0 0 24 24" fill="none" xmlns="http://www.w3.org/2000/svg">
<g clip-path="url(#clip0_2080_163671)">
<circle cx="12" cy="12" r="12" fill="#E2E6EB"/>
<path d="M7.38252 7.38252C7.89256 6.87249 8.71948 6.87249 9.22951 7.38252L16.6175 14.7705C17.1275 15.2805 17.1275 16.1074 16.6175 16.6175C16.1074 17.1275 15.2805 17.1275 14.7705 16.6175L7.38252 9.22951C6.87249 8.71948 6.87249 7.89256 7.38252 7.38252Z" fill="#888888"/>
<path d="M16.6175 7.38252C17.1275 7.89256 17.1275 8.71948 16.6175 9.22951L9.22951 16.6175C8.71948 17.1275 7.89256 17.1275 7.38252 16.6175C6.87249 16.1074 6.87249 15.2805 7.38252 14.7705L14.7705 7.38252C15.2805 6.87249 16.1074 6.87249 16.6175 7.38252Z" fill="#888888"/>
</g>
<defs>
<clipPath id="clip0_2080_163671">
<rect width="24" height="24" fill="white"/>
</clipPath>
</defs>
</svg>