<svg width="44" height="44" viewBox="0 0 44 44" fill="none" xmlns="http://www.w3.org/2000/svg">
<g clip-path="url(#clip0_338_5379)">
<circle cx="22" cy="22" r="22" fill="#F4F4F4"/>
<path d="M22 4C18.4399 4 14.9598 5.05568 11.9997 7.03355C9.03966 9.01141 6.73255 11.8226 5.37018 15.1117C4.0078 18.4008 3.65134 22.02 4.34587 25.5116C5.04041 29.0033 6.75474 32.2106 9.27209 34.7279C11.7894 37.2453 14.9967 38.9596 18.4884 39.6541C21.98 40.3487 25.5992 39.9922 28.8883 38.6298C32.1774 37.2674 34.9886 34.9603 36.9665 32.0003C38.9443 29.0402 40 25.5601 40 22C40 17.2261 38.1036 12.6477 34.7279 9.27208C31.3523 5.89642 26.7739 4 22 4ZM32.1678 15.8125L19.8603 31.6345C19.7624 31.7622 19.6383 31.8675 19.4963 31.9432C19.3544 32.0189 19.1978 32.0632 19.0372 32.0732C18.8766 32.0833 18.7158 32.0587 18.5655 32.0013C18.4152 31.9438 18.279 31.8548 18.166 31.7402L11.2 24.799C11.0939 24.6943 11.0096 24.5696 10.9521 24.4321C10.8946 24.2946 10.865 24.147 10.865 23.998C10.865 23.8489 10.8946 23.7014 10.9521 23.5639C11.0096 23.4264 11.0939 23.3017 11.2 23.197L12.6985 21.6985C12.8032 21.5924 12.9279 21.5081 13.0654 21.4506C13.2029 21.3931 13.3505 21.3635 13.4995 21.3635C13.6486 21.3635 13.7961 21.3931 13.9336 21.4506C14.0711 21.5081 14.1958 21.5924 14.3005 21.6985L18.6858 26.05L28.732 13.1417C28.8227 13.0237 28.936 12.9248 29.0652 12.8508C29.1945 12.7769 29.3371 12.7293 29.4849 12.7109C29.6327 12.6925 29.7826 12.7036 29.926 12.7435C30.0695 12.7835 30.2036 12.8516 30.3205 12.9437L31.9675 14.2262C32.0856 14.317 32.1845 14.4303 32.2584 14.5595C32.3324 14.6887 32.38 14.8314 32.3984 14.9791C32.4168 15.1269 32.4057 15.2768 32.3657 15.4203C32.3257 15.5637 32.2577 15.6978 32.1655 15.8147L32.1678 15.8125Z" fill="#316CE2"/>
</g>
<defs>
<clipPath id="clip0_338_5379">
<rect width="44" height="44" fill="white"/>
</clipPath>
</defs>
</svg>
