<svg width="12" height="11" viewBox="0 0 12 11" fill="none" xmlns="http://www.w3.org/2000/svg">
<path d="M11.869 1.73302L5.012 10.549C4.95701 10.6196 4.88766 10.6776 4.80854 10.7193C4.72942 10.761 4.64234 10.7854 4.55308 10.7908C4.46381 10.7963 4.3744 10.7828 4.29077 10.7511C4.20715 10.7194 4.13121 10.6703 4.068 10.607L0.186 6.73802C0.0677772 6.6197 0.00136852 6.45928 0.00136852 6.29202C0.00136852 6.12476 0.0677772 5.96434 0.186 5.84602L1.021 5.01102C1.13932 4.8928 1.29974 4.82639 1.467 4.82639C1.63426 4.82639 1.79468 4.8928 1.913 5.01102L4.359 7.43502L9.959 0.245023C10.0618 0.113168 10.2128 0.027521 10.3787 0.00689596C10.5447 -0.0137291 10.712 0.032354 10.844 0.135023L11.762 0.849023C11.8939 0.951858 11.9795 1.10282 12.0001 1.26876C12.0208 1.4347 11.9747 1.60204 11.872 1.73402L11.869 1.73302Z" fill="white"/>
</svg>
