<svg width="44" height="44" viewBox="0 0 44 44" fill="none" xmlns="http://www.w3.org/2000/svg">
<circle cx="22" cy="22" r="22" fill="#F4F4F4"/>
<path d="M34.7276 9.27176C32.2102 6.7545 29.0029 5.04026 25.5113 4.34581C22.0196 3.65135 18.4005 4.00786 15.1115 5.37026C11.8225 6.73267 9.0113 9.03977 7.03348 11.9998C5.05566 14.9599 4 18.44 4 22C4 25.56 5.05566 29.0401 7.03348 32.0002C9.0113 34.9602 11.8225 37.2673 15.1115 38.6297C18.4005 39.9921 22.0196 40.3487 25.5113 39.6542C29.0029 38.9597 32.2102 37.2455 34.7276 34.7282C38.1027 31.3527 39.9989 26.7746 39.9989 22.0011C39.9989 17.2276 38.1027 12.6496 34.7276 9.27401V9.27176ZM31.7036 30.118L30.1128 31.7042C29.9875 31.8298 29.8386 31.9293 29.6747 31.9973C29.5108 32.0652 29.3351 32.1002 29.1577 32.1002C28.9803 32.1002 28.8046 32.0652 28.6407 31.9973C28.4769 31.9293 28.328 31.8298 28.2026 31.7042L21.9993 25.4988L15.7938 31.7042C15.6685 31.8298 15.5196 31.9293 15.3557 31.9973C15.1918 32.0652 15.0161 32.1002 14.8387 32.1002C14.6613 32.1002 14.4856 32.0652 14.3217 31.9973C14.1579 31.9293 14.009 31.8298 13.8836 31.7042L12.3086 30.1135C12.1831 29.9881 12.0835 29.8392 12.0156 29.6753C11.9476 29.5115 11.9127 29.3358 11.9127 29.1584C11.9127 28.981 11.9476 28.8053 12.0156 28.6414C12.0835 28.4775 12.1831 28.3286 12.3086 28.2033L18.4983 22L12.2951 15.7945C12.1696 15.6691 12.07 15.5202 12.0021 15.3563C11.9341 15.1925 11.8992 15.0168 11.8992 14.8394C11.8992 14.662 11.9341 14.4863 12.0021 14.3224C12.07 14.1585 12.1696 14.0096 12.2951 13.8843L13.8858 12.2935C14.0112 12.168 14.1601 12.0684 14.324 12.0005C14.4879 11.9325 14.6636 11.8976 14.841 11.8976C15.0184 11.8976 15.194 11.9325 15.3579 12.0005C15.5218 12.0684 15.6707 12.168 15.7961 12.2935L21.9993 18.499L28.2048 12.2958C28.3302 12.1702 28.4791 12.0707 28.643 12.0027C28.8069 11.9348 28.9825 11.8998 29.16 11.8998C29.3374 11.8998 29.513 11.9348 29.6769 12.0027C29.8408 12.0707 29.9897 12.1702 30.1151 12.2958L31.7058 13.8865C31.8314 14.0119 31.9309 14.1608 31.9989 14.3247C32.0668 14.4885 32.1018 14.6642 32.1018 14.8416C32.1018 15.019 32.0668 15.1947 31.9989 15.3586C31.9309 15.5225 31.8314 15.6714 31.7058 15.7968L25.5003 22L31.7058 28.2055C31.8314 28.3309 31.9309 28.4798 31.9989 28.6437C32.0668 28.8075 32.1018 28.9832 32.1018 29.1606C32.1018 29.338 32.0668 29.5137 31.9989 29.6776C31.9309 29.8415 31.8314 29.9904 31.7058 30.1158L31.7036 30.118Z" fill="#EF3123"/>
</svg>
