<svg width="19" height="20" viewBox="0 0 19 20" fill="none" xmlns="http://www.w3.org/2000/svg">
<path d="M9.78531 6.58855C9.12259 6.58855 8.47477 6.78863 7.92374 7.16348C7.37272 7.53834 6.94325 8.07114 6.68964 8.6945C6.43603 9.31786 6.36968 10.0038 6.49896 10.6656C6.62825 11.3273 6.94738 11.9352 7.41599 12.4123C7.88459 12.8894 8.48164 13.2143 9.13161 13.3459C9.78159 13.4776 10.4553 13.41 11.0676 13.1518C11.6798 12.8936 12.2031 12.4563 12.5713 11.8953C12.9395 11.3343 13.136 10.6747 13.136 10C13.1362 9.55197 13.0496 9.1083 12.8812 8.69434C12.7129 8.28038 12.4661 7.90425 12.1549 7.58744C11.8438 7.27063 11.4743 7.01934 11.0677 6.84795C10.6611 6.67656 10.2254 6.58841 9.78531 6.58855ZM17.2781 9.14741C17.088 7.4173 16.3257 5.80445 15.1162 4.57383C13.9068 3.34322 12.3222 2.56802 10.6227 2.37561V0.618225H8.94788V2.37561C7.2492 2.56891 5.66554 3.34449 4.45692 4.57503C3.24829 5.80557 2.48651 7.41793 2.29666 9.14741H0.570557V10.8526H2.29666C2.48564 12.5828 3.24703 14.1962 4.45574 15.4275C5.66444 16.6589 7.24858 17.4351 8.94788 17.6286V19.3818H10.6227V17.6286C12.3228 17.436 13.9079 16.6602 15.1174 15.4287C16.3269 14.1973 17.0889 12.5835 17.2781 10.8526H19.0001V9.14741H17.2781ZM9.78531 15.9703C8.62551 15.9703 7.49176 15.6202 6.52743 14.9642C5.56309 14.3081 4.81149 13.3757 4.36765 12.2848C3.92382 11.1938 3.80769 9.99339 4.03396 8.83526C4.26022 7.67713 4.81872 6.61332 5.63881 5.77836C6.45891 4.94339 7.50378 4.37477 8.64129 4.14441C9.7788 3.91404 10.9579 4.03227 12.0294 4.48415C13.1009 4.93603 14.0167 5.70126 14.6611 6.68308C15.3054 7.66489 15.6493 8.81919 15.6493 10C15.6491 11.5834 15.0312 13.1018 13.9315 14.2214C12.8318 15.341 11.3405 15.9701 9.78531 15.9703Z" fill="#64748B"/>
</svg>
