<svg width="24" height="20" viewBox="0 0 24 20" fill="none" xmlns="http://www.w3.org/2000/svg">
<g clip-path="url(#clip0_18872_4579)">
<path fill-rule="evenodd" clip-rule="evenodd" d="M1.35954 1.59435C2.46299 0.490944 4.19008 0.23291 6.41665 0.23291H17.5794C19.806 0.23291 21.5331 0.490944 22.6366 1.59435C23.74 2.69775 23.998 4.42477 23.998 6.65126V7.76749C23.998 8.22985 23.6232 8.60467 23.1608 8.60467C22.0828 8.60467 21.2073 9.48003 21.2073 10.5581C21.2073 11.6361 22.0828 12.5115 23.1608 12.5115C23.6232 12.5115 23.998 12.8863 23.998 13.3487C23.998 15.5751 23.74 17.3022 22.6366 18.4056C21.5331 19.509 19.806 19.767 17.5794 19.767H6.41665C4.19008 19.767 2.46299 19.509 1.35954 18.4056C0.256091 17.3022 -0.00195312 15.5751 -0.00195312 13.3487V12.7905C-0.00195312 12.3282 0.372878 11.9534 0.835256 11.9534C1.91334 11.9534 2.78874 11.078 2.78874 9.99996C2.78874 8.92192 1.91334 8.04655 0.835256 8.04655C0.372878 8.04655 -0.00195312 7.67173 -0.00195312 7.20937V6.65126C-0.00195312 4.42477 0.256091 2.69775 1.35954 1.59435ZM1.67314 6.46954C3.27236 6.84797 4.46316 8.28555 4.46316 9.99996C4.46316 11.7144 3.27236 13.152 1.67314 13.5304C1.68915 15.6451 1.98824 16.6664 2.54353 17.2216C3.1145 17.7926 4.17811 18.0927 6.41665 18.0927H17.5794C19.818 18.0927 20.8816 17.7926 21.4526 17.2216C21.9569 16.7173 22.2499 15.8288 22.3114 14.0858C20.718 13.7031 19.5329 12.2684 19.5329 10.5581C19.5329 8.84343 20.7241 7.40567 22.3236 7.02749V6.65126C22.3236 4.41281 22.0235 3.34924 21.4526 2.77829C20.8816 2.20735 19.818 1.90726 17.5794 1.90726H6.41665C4.17811 1.90726 3.1145 2.20735 2.54353 2.77829C1.98824 3.33357 1.68915 4.35478 1.67314 6.46954Z" fill="#121212"/>
<path fill-rule="evenodd" clip-rule="evenodd" d="M9.76543 0.23291C10.2278 0.23291 10.6026 0.607726 10.6026 1.07009L10.6026 3.30255C10.6026 3.76491 10.2278 4.13973 9.76543 4.13973C9.30305 4.13973 8.92822 3.76491 8.92822 3.30255L8.92822 1.07009C8.92822 0.607726 9.30305 0.23291 9.76543 0.23291ZM9.76543 6.93032C10.2278 6.93032 10.6026 7.30513 10.6026 7.76749L10.6026 12.2324C10.6026 12.6948 10.2278 13.0696 9.76543 13.0696C9.30305 13.0696 8.92822 12.6948 8.92822 12.2324L8.92822 7.76749C8.92822 7.30513 9.30305 6.93032 9.76543 6.93032ZM9.76543 15.8602C10.2278 15.8602 10.6026 16.235 10.6026 16.6974L10.6026 18.9298C10.6026 19.3922 10.2278 19.767 9.76543 19.767C9.30305 19.767 8.92822 19.3922 8.92822 18.9298L8.92822 16.6974C8.92822 16.235 9.30305 15.8602 9.76543 15.8602Z" fill="#121212"/>
</g>
<defs>
<clipPath id="clip0_18872_4579">
<rect width="24" height="19.5341" fill="white" transform="translate(0 0.23291)"/>
</clipPath>
</defs>
</svg>
