<svg width="44" height="44" viewBox="0 0 44 44" fill="none" xmlns="http://www.w3.org/2000/svg">
<circle cx="22" cy="22" r="22" fill="#F4F4F4"/>
<path fill-rule="evenodd" clip-rule="evenodd" d="M4 22C4 12.0589 12.0589 4 22 4C31.9411 4 40 12.0589 40 22C40 31.9411 31.9411 40 22 40C12.0589 40 4 31.9411 4 22Z" fill="#FDBC3F"/>
<path fill-rule="evenodd" clip-rule="evenodd" d="M22 12C23.1046 12 24 12.6716 24 13.5V22.5C24 23.3284 23.1046 24 22 24C20.8954 24 20 23.3284 20 22.5V13.5C20 12.6716 20.8954 12 22 12Z" fill="black"/>
<path fill-rule="evenodd" clip-rule="evenodd" d="M19 29C19 27.3431 20.3431 26 22 26C23.6569 26 25 27.3431 25 29C25 30.6569 23.6569 32 22 32C20.3431 32 19 30.6569 19 29Z" fill="black"/>
</svg>
