<svg width="92" height="70" viewBox="0 0 92 70" fill="none" xmlns="http://www.w3.org/2000/svg">
<g clip-path="url(#clip0_5290_170482)">
<path fill-rule="evenodd" clip-rule="evenodd" d="M7.36135 55.2843H58.2213C55.4734 55.2843 53.2458 53.0619 53.2458 50.3204C53.2458 47.5789 55.4734 45.3564 58.2213 45.3564H9.03183C9.02781 45.3564 9.0238 45.3564 9.0198 45.3564H7.36132C3.69752 45.3564 0.727417 48.3197 0.727417 51.975V55.2843H7.36135Z" fill="url(#paint0_linear_5290_170482)"/>
<path d="M39.4253 55.1617C39.4253 49.7464 35.0251 45.3564 29.5972 45.3564H8.46704V58.7161C8.46704 64.1314 12.8672 68.5214 18.2951 68.5214H39.4253V55.1617Z" fill="url(#paint1_linear_5290_170482)"/>
<path d="M20.6292 10.4869C20.6292 5.07162 25.0293 0.681641 30.4571 0.681641H70.3834V51.3626C70.3834 60.8394 62.6832 68.5218 53.1844 68.5218H20.6292V10.4869Z" fill="url(#paint2_linear_5290_170482)"/>
<path fill-rule="evenodd" clip-rule="evenodd" d="M70.3834 13.9187H25.6046C29.2684 13.9187 32.2385 10.9555 32.2385 7.30019C32.2385 3.64487 29.2684 0.681641 25.6046 0.681641H70.3834C74.0473 0.681641 77.0173 3.64487 77.0173 7.30019C77.0173 10.9555 74.0473 13.9187 70.3834 13.9187Z" fill="url(#paint3_linear_5290_170482)"/>
<path fill-rule="evenodd" clip-rule="evenodd" d="M20.6292 62.4712V68.5221H14.5663C17.9111 68.5123 20.6205 65.8084 20.6292 62.4712Z" fill="#D4D8E1"/>
<path fill-rule="evenodd" clip-rule="evenodd" d="M8.46704 45.3564V51.975L8.46703 47.5626C8.46703 46.3441 7.477 45.3564 6.25574 45.3564H8.46704Z" fill="#D0D4DE"/>
<path d="M42.7208 43.0937V41.6973C42.5808 38.9244 43.7005 37.109 46.4599 35.4932C48.9393 33.997 49.779 32.9197 49.779 30.9648V30.9448C49.779 28.8102 48.0795 27.2942 45.5801 27.2942C43.0007 27.2942 41.3811 28.8901 41.2012 31.1642L41.1812 31.3438H36.4823L36.5023 31.1244C36.7223 26.6558 39.9014 23.2246 45.84 23.2246C51.2987 23.2246 54.9778 26.3566 54.9778 30.7652V30.7852C54.9778 33.8175 53.4582 35.9519 50.7388 37.5678C48.1195 39.0839 47.3796 40.1412 47.3796 42.0962V43.0937H42.7208ZM45.1202 52.4696C43.5006 52.4696 42.2009 51.2328 42.2009 49.6569C42.2009 48.0609 43.5006 46.844 45.1202 46.844C46.7398 46.844 48.0195 48.0609 48.0195 49.6569C48.0195 51.2328 46.7398 52.4696 45.1202 52.4696Z" fill="white"/>
<path d="M77.3156 54.2482L76.5317 55.0303L81.5027 59.9898L82.2866 59.2077L77.3156 54.2482Z" stroke="url(#paint4_linear_5290_170482)" stroke-width="1.21817"/>
<g filter="url(#filter0_d_5290_170482)">
<path d="M78.2099 59.5479C77.2066 58.547 77.2066 56.924 78.2099 55.9231C79.2131 54.9221 80.8398 54.9221 81.8431 55.9231L89.2762 63.339C90.2795 64.34 90.2795 65.9628 89.2762 66.9638C88.2729 67.9648 86.6463 67.9648 85.643 66.9638L78.2099 59.5479Z" fill="url(#paint5_linear_5290_170482)"/>
</g>
<path d="M81.9927 43.1508C81.9927 51.6798 75.0625 58.5941 66.5136 58.5941C57.9647 58.5941 51.0345 51.6798 51.0345 43.1508C51.0345 34.6217 57.9647 27.7075 66.5136 27.7075C75.0625 27.7075 81.9927 34.6217 81.9927 43.1508Z" fill="#D9DCE0" fill-opacity="0.5"/>
<path fill-rule="evenodd" clip-rule="evenodd" d="M66.5136 53.6302C72.3146 53.6302 77.0173 48.9384 77.0173 43.1508C77.0173 37.3632 72.3146 32.6714 66.5136 32.6714C60.7126 32.6714 56.01 37.3632 56.01 43.1508C56.01 48.9384 60.7126 53.6302 66.5136 53.6302ZM66.5136 58.5941C75.0625 58.5941 81.9927 51.6798 81.9927 43.1508C81.9927 34.6217 75.0625 27.7075 66.5136 27.7075C57.9647 27.7075 51.0345 34.6217 51.0345 43.1508C51.0345 51.6798 57.9647 58.5941 66.5136 58.5941Z" fill="url(#paint6_linear_5290_170482)"/>
</g>
<defs>
<filter id="filter0_d_5290_170482" x="69.3574" y="46.1724" width="26.9713" height="26.942" filterUnits="userSpaceOnUse" color-interpolation-filters="sRGB">
<feFlood flood-opacity="0" result="BackgroundImageFix"/>
<feColorMatrix in="SourceAlpha" type="matrix" values="0 0 0 0 0 0 0 0 0 0 0 0 0 0 0 0 0 0 127 0" result="hardAlpha"/>
<feOffset dx="-0.9" dy="-1.8"/>
<feGaussianBlur stdDeviation="3.6"/>
<feComposite in2="hardAlpha" operator="out"/>
<feColorMatrix type="matrix" values="0 0 0 0 0.362969 0 0 0 0 0.386115 0 0 0 0 0.420833 0 0 0 0.25 0"/>
<feBlend mode="normal" in2="BackgroundImageFix" result="effect1_dropShadow_5290_170482"/>
<feBlend mode="normal" in="SourceGraphic" in2="effect1_dropShadow_5290_170482" result="shape"/>
</filter>
<linearGradient id="paint0_linear_5290_170482" x1="27.9698" y1="54.9831" x2="27.9805" y2="45.8699" gradientUnits="userSpaceOnUse">
<stop stop-color="#C2C5CD"/>
<stop offset="0.953081" stop-color="#B1B4BD"/>
</linearGradient>
<linearGradient id="paint1_linear_5290_170482" x1="23.136" y1="67.8188" x2="23.2437" y2="46.5549" gradientUnits="userSpaceOnUse">
<stop stop-color="#A8ADB8"/>
<stop offset="1" stop-color="#CFD3DD"/>
</linearGradient>
<linearGradient id="paint2_linear_5290_170482" x1="46.8083" y1="66.4641" x2="46.6408" y2="20.8137" gradientUnits="userSpaceOnUse">
<stop stop-color="#D3D7E0"/>
<stop offset="1" stop-color="#D1D5DF"/>
</linearGradient>
<linearGradient id="paint3_linear_5290_170482" x1="57.9448" y1="0.681641" x2="57.9448" y2="15.0218" gradientUnits="userSpaceOnUse">
<stop stop-color="#E1E5EB"/>
<stop offset="0.970777" stop-color="#ECF0F5"/>
</linearGradient>
<linearGradient id="paint4_linear_5290_170482" x1="76.9395" y1="56.2638" x2="79.6699" y2="54.5105" gradientUnits="userSpaceOnUse">
<stop stop-color="#B0B8C7"/>
<stop offset="1" stop-color="#757982"/>
</linearGradient>
<linearGradient id="paint5_linear_5290_170482" x1="86.9836" y1="59.4367" x2="77.1812" y2="67.2333" gradientUnits="userSpaceOnUse">
<stop stop-color="#CBCED8"/>
<stop offset="1" stop-color="#C5C9D8"/>
</linearGradient>
<linearGradient id="paint6_linear_5290_170482" x1="53.7987" y1="32.1199" x2="81.9414" y2="54.7969" gradientUnits="userSpaceOnUse">
<stop stop-color="#B9BEC8"/>
<stop offset="1" stop-color="#ABB0B9"/>
</linearGradient>
<clipPath id="clip0_5290_170482">
<rect width="91" height="69" fill="white" transform="translate(0.5 0.5)"/>
</clipPath>
</defs>
</svg>
