<svg width="16" height="18" viewBox="0 0 16 18" fill="none" xmlns="http://www.w3.org/2000/svg">
<path d="M4.23051 5.12571C2.30262 5.61323 0.978545 7.20147 1.0006 9V13C0.960909 15.1726 2.88917 16.9631 5.30841 17H10.6916C13.1108 16.9631 15.0391 15.1726 14.9994 13V9C15.0215 7.20147 13.6974 5.61323 11.7695 5.12571M4.23051 5.12571V4.6C4.16625 2.67172 5.8529 1.06092 8 1C10.1471 1.06092 11.8337 2.67172 11.7695 4.6V5.12571M4.23051 5.12571C4.58177 5.04196 4.94496 4.99969 5.3084 4.99999H10.6928C11.0563 4.99969 11.4182 5.04196 11.7695 5.12571M7.99998 13V11" stroke="#121212" stroke-width="1.5" stroke-linecap="round" stroke-linejoin="round"/>
</svg>
