<svg width="116" height="98" viewBox="0 0 116 98" fill="none" xmlns="http://www.w3.org/2000/svg">
    <path d="M20.3347 0.203953H0.403992L35.0199 60.3549L67.2645 4.44949H93.4884C94.1821 4.52437 94.8427 4.78428 95.4014 5.20071C95.9601 5.61714 96.3955 6.1757 96.6634 6.81755C96.9312 7.4594 97.0214 8.16123 96.9238 8.84951C96.8262 9.53779 96.5441 10.1866 96.1081 10.7293C93.2255 15.9511 84.3091 29.7977 84.3091 29.7977C82.5805 31.8139 80.4563 33.4566 78.0668 34.6246C75.6773 35.7926 73.0732 36.4612 70.4147 36.5893C66.6669 37.0081 62.8831 37.0081 59.1353 36.5893C59.1353 36.5893 69.3673 40.2491 70.4147 42.5991C71.462 44.9492 72.7714 48.8787 68.8414 56.1848C64.9114 63.4909 56.5096 77.8712 56.5096 77.8712C56.1868 78.3765 55.7415 78.7919 55.2145 79.08C54.6875 79.3682 54.0968 79.5188 53.4956 79.5188C52.8945 79.5188 52.3025 79.3682 51.7755 79.08C51.2486 78.7919 50.8032 78.3765 50.4805 77.8712C48.0165 74.9409 45.3913 72.1477 42.6176 69.5064C42.6176 69.5064 50.7424 86.5272 54.4154 91.9688C58.0885 97.4103 61.2349 101.388 67.2645 93.7967C71.534 88.4397 81.9349 70.5912 89.7392 55.3511C93.7299 48.9821 91.5824 45.6205 91.5824 45.6205L87.9091 40.7417C87.9091 40.7417 96.9164 42.377 101.375 34.798C105.833 27.219 113.764 13.6187 113.764 13.6187C113.764 13.6187 119.582 0.662848 108.41 0.203953C97.2385 -0.254942 48.2845 0.203953 48.2845 0.203953L27.6329 36.5823L14.1694 13.6187L20.3347 0.203953Z" fill="white"/>
</svg>
